
<svg width="156" height="185" viewBox="0 0 156 185" fill="none" xmlns="http://www.w3.org/2000/svg">
<path d="M18.151 184.103H41.251C41.4234 184.103 41.5887 184.034 41.7106 183.913C41.8325 183.791 41.901 183.625 41.901 183.453C41.901 183.281 41.8325 183.115 41.7106 182.993C41.5887 182.871 41.4234 182.803 41.251 182.803H18.151C17.9786 182.803 17.8133 182.871 17.6914 182.993C17.5695 183.115 17.501 183.281 17.501 183.453C17.501 183.625 17.5695 183.791 17.6914 183.913C17.8133 184.034 17.9786 184.103 18.151 184.103Z" fill="#161616"/>
<path d="M119.696 183.324H136.829C137.001 183.324 137.167 183.256 137.289 183.134C137.41 183.012 137.479 182.846 137.479 182.674C137.479 182.502 137.41 182.336 137.289 182.214C137.167 182.092 137.001 182.024 136.829 182.024H119.696C119.524 182.024 119.358 182.092 119.236 182.214C119.114 182.336 119.046 182.502 119.046 182.674C119.046 182.846 119.114 183.012 119.236 183.134C119.358 183.256 119.524 183.324 119.696 183.324Z" fill="#161616"/>
<path d="M145.137 182.545H155.092C155.264 182.545 155.43 182.477 155.552 182.355C155.674 182.233 155.742 182.067 155.742 181.895C155.742 181.723 155.674 181.557 155.552 181.435C155.43 181.313 155.264 181.245 155.092 181.245H145.141C144.969 181.245 144.803 181.313 144.681 181.435C144.559 181.557 144.491 181.723 144.491 181.895C144.491 182.067 144.559 182.233 144.681 182.355C144.803 182.477 144.969 182.545 145.141 182.545H145.137Z" fill="#161616"/>
<path d="M104.38 130.674H22.217C20.8412 130.67 19.5229 130.122 18.5501 129.149C17.5772 128.176 17.029 126.858 17.025 125.482V122.8C17.029 121.424 17.5772 120.106 18.5501 119.133C19.5229 118.16 20.8412 117.612 22.217 117.608H104.38C105.756 117.612 107.074 118.16 108.047 119.133C109.02 120.106 109.568 121.424 109.572 122.8V125.474C109.57 126.851 109.023 128.172 108.05 129.146C107.077 130.121 105.757 130.67 104.38 130.674V130.674Z" stroke="#161616" stroke-width="0.637" stroke-miterlimit="10"/>
<path d="M112.428 144.428H30.265C28.8892 144.424 27.5709 143.876 26.5981 142.903C25.6252 141.93 25.0769 140.612 25.073 139.236V136.553C25.0769 135.177 25.6252 133.859 26.5981 132.886C27.5709 131.913 28.8892 131.365 30.265 131.361H112.428C113.804 131.365 115.122 131.913 116.095 132.886C117.068 133.859 117.616 135.177 117.62 136.553V139.236C117.616 140.612 117.068 141.93 116.095 142.903C115.122 143.876 113.804 144.424 112.428 144.428Z" stroke="#161616" stroke-width="0.637" stroke-miterlimit="10"/>
<path d="M93.476 157.84H11.313C9.9372 157.836 8.61889 157.288 7.64606 156.315C6.67322 155.342 6.12494 154.024 6.12099 152.648V149.965C6.12494 148.589 6.67322 147.271 7.64606 146.298C8.61889 145.325 9.9372 144.777 11.313 144.773H93.476C94.8518 144.777 96.1701 145.325 97.1429 146.298C98.1157 147.271 98.664 148.589 98.668 149.965V152.65C98.6635 154.025 98.115 155.343 97.1422 156.316C96.1694 157.288 94.8514 157.836 93.476 157.84Z" fill="#1A237E" stroke="#161616" stroke-width="0.637" stroke-miterlimit="10"/>
<path d="M103.514 170.474H21.394C20.0182 170.47 18.6999 169.922 17.7271 168.949C16.7542 167.976 16.2059 166.658 16.202 165.282V162.6C16.2059 161.224 16.7542 159.906 17.7271 158.933C18.6999 157.96 20.0182 157.412 21.394 157.408H103.557C104.933 157.412 106.251 157.96 107.224 158.933C108.197 159.906 108.745 161.224 108.749 162.6V165.282C108.728 166.66 108.168 167.975 107.19 168.945C106.211 169.915 104.892 170.464 103.514 170.474V170.474Z" stroke="#161616" stroke-width="0.637" stroke-miterlimit="10"/>
<path d="M112.428 183.538H30.265C28.8892 183.534 27.5709 182.986 26.5981 182.013C25.6252 181.04 25.0769 179.722 25.073 178.346V175.664C25.0769 174.288 25.6252 172.97 26.5981 171.997C27.5709 171.024 28.8892 170.476 30.265 170.472H112.428C113.804 170.476 115.122 171.024 116.095 171.997C117.068 172.97 117.616 174.288 117.62 175.664V178.346C117.616 179.722 117.068 181.04 116.095 182.013C115.122 182.986 113.804 183.534 112.428 183.538Z" stroke="#161616" stroke-width="0.637" stroke-miterlimit="10"/>
<path d="M80.367 123.23V128.595C80.367 128.728 80.4197 128.855 80.5134 128.949C80.6072 129.042 80.7344 129.095 80.867 129.095C80.9996 129.095 81.1268 129.042 81.2206 128.949C81.3143 128.855 81.367 128.728 81.367 128.595V123.23C81.367 123.097 81.3143 122.97 81.2206 122.876C81.1268 122.783 80.9996 122.73 80.867 122.73C80.7344 122.73 80.6072 122.783 80.5134 122.876C80.4197 122.97 80.367 123.097 80.367 123.23Z" fill="#161616"/>
<path d="M83.266 124.178V129.067C83.266 129.2 83.3187 129.327 83.4124 129.421C83.5062 129.514 83.6334 129.567 83.766 129.567C83.8986 129.567 84.0258 129.514 84.1195 129.421C84.2133 129.327 84.266 129.2 84.266 129.067V124.178C84.266 124.045 84.2133 123.918 84.1195 123.824C84.0258 123.731 83.8986 123.678 83.766 123.678C83.6334 123.678 83.5062 123.731 83.4124 123.824C83.3187 123.918 83.266 124.045 83.266 124.178Z" fill="#161616"/>
<path d="M93.044 121.496V128.332C93.044 128.465 93.0967 128.592 93.1904 128.686C93.2842 128.779 93.4114 128.832 93.544 128.832C93.6766 128.832 93.8038 128.779 93.8975 128.686C93.9913 128.592 94.044 128.465 94.044 128.332V121.496C94.044 121.363 93.9913 121.236 93.8975 121.142C93.8038 121.049 93.6766 120.996 93.544 120.996C93.4114 120.996 93.2842 121.049 93.1904 121.142C93.0967 121.236 93.044 121.363 93.044 121.496Z" fill="#161616"/>
<path d="M94.991 125.391V128.074C94.991 128.207 95.0437 128.334 95.1374 128.428C95.2312 128.521 95.3584 128.574 95.491 128.574C95.6236 128.574 95.7508 128.521 95.8445 128.428C95.9383 128.334 95.991 128.207 95.991 128.074V125.391C95.991 125.258 95.9383 125.131 95.8445 125.037C95.7508 124.944 95.6236 124.891 95.491 124.891C95.3584 124.891 95.2312 124.944 95.1374 125.037C95.0437 125.131 94.991 125.258 94.991 125.391Z" fill="#161616"/>
<path d="M27.841 121.327V128.899C27.841 129.032 27.8937 129.159 27.9874 129.253C28.0812 129.346 28.2084 129.399 28.341 129.399C28.4736 129.399 28.6008 129.346 28.6945 129.253C28.7883 129.159 28.841 129.032 28.841 128.899V121.327C28.841 121.194 28.7883 121.067 28.6945 120.973C28.6008 120.88 28.4736 120.827 28.341 120.827C28.2084 120.827 28.0812 120.88 27.9874 120.973C27.8937 121.067 27.841 121.194 27.841 121.327Z" fill="#161616"/>
<path d="M23.818 123.227V127.683C23.818 127.816 23.8707 127.943 23.9644 128.037C24.0582 128.13 24.1854 128.183 24.318 128.183C24.4506 128.183 24.5778 128.13 24.6715 128.037C24.7653 127.943 24.818 127.816 24.818 127.683V123.227C24.818 123.094 24.7653 122.967 24.6715 122.873C24.5778 122.78 24.4506 122.727 24.318 122.727C24.1854 122.727 24.0582 122.78 23.9644 122.873C23.8707 122.967 23.818 123.094 23.818 123.227Z" fill="#161616"/>
<path d="M39.999 121.625V127.682C39.999 127.815 40.0517 127.942 40.1454 128.036C40.2392 128.129 40.3664 128.182 40.499 128.182C40.6316 128.182 40.7588 128.129 40.8525 128.036C40.9463 127.942 40.999 127.815 40.999 127.682V121.625C40.999 121.492 40.9463 121.365 40.8525 121.271C40.7588 121.178 40.6316 121.125 40.499 121.125C40.3664 121.125 40.2392 121.178 40.1454 121.271C40.0517 121.365 39.999 121.492 39.999 121.625Z" fill="#161616"/>
<path d="M35.543 125.174V129.198C35.543 129.331 35.5957 129.458 35.6894 129.552C35.7832 129.645 35.9104 129.698 36.043 129.698C36.1756 129.698 36.3028 129.645 36.3965 129.552C36.4903 129.458 36.543 129.331 36.543 129.198V125.174C36.543 125.041 36.4903 124.914 36.3965 124.82C36.3028 124.727 36.1756 124.674 36.043 124.674C35.9104 124.674 35.7832 124.727 35.6894 124.82C35.5957 124.914 35.543 125.041 35.543 125.174Z" fill="#161616"/>
<path d="M58.214 121.756V129.631C58.214 129.764 58.2667 129.891 58.3604 129.985C58.4542 130.078 58.5814 130.131 58.714 130.131C58.8466 130.131 58.9738 130.078 59.0675 129.985C59.1613 129.891 59.214 129.764 59.214 129.631V121.756C59.214 121.623 59.1613 121.496 59.0675 121.402C58.9738 121.309 58.8466 121.256 58.714 121.256C58.5814 121.256 58.4542 121.309 58.3604 121.402C58.2667 121.496 58.214 121.623 58.214 121.756Z" fill="#161616"/>
<path d="M61.2 124.741V128.765C61.2 128.898 61.2527 129.025 61.3464 129.119C61.4402 129.212 61.5674 129.265 61.7 129.265C61.8326 129.265 61.9598 129.212 62.0535 129.119C62.1473 129.025 62.2 128.898 62.2 128.765V124.741C62.2 124.608 62.1473 124.481 62.0535 124.387C61.9598 124.294 61.8326 124.241 61.7 124.241C61.5674 124.241 61.4402 124.294 61.3464 124.387C61.2527 124.481 61.2 124.608 61.2 124.741Z" fill="#161616"/>
<path d="M65.613 121.151V129.026C65.613 129.159 65.6657 129.286 65.7594 129.38C65.8532 129.473 65.9804 129.526 66.113 129.526C66.2456 129.526 66.3728 129.473 66.4665 129.38C66.5603 129.286 66.613 129.159 66.613 129.026V121.151C66.613 121.018 66.5603 120.891 66.4665 120.797C66.3728 120.704 66.2456 120.651 66.113 120.651C65.9804 120.651 65.8532 120.704 65.7594 120.797C65.6657 120.891 65.613 121.018 65.613 121.151Z" fill="#161616"/>
<path d="M36.711 134.346V143.692C36.711 143.825 36.7637 143.952 36.8574 144.046C36.9512 144.139 37.0784 144.192 37.211 144.192C37.3436 144.192 37.4708 144.139 37.5645 144.046C37.6583 143.952 37.711 143.825 37.711 143.692V134.346C37.711 134.213 37.6583 134.086 37.5645 133.992C37.4708 133.899 37.3436 133.846 37.211 133.846C37.0784 133.846 36.9512 133.899 36.8574 133.992C36.7637 134.086 36.711 134.213 36.711 134.346Z" fill="#161616"/>
<path d="M42.076 137.462V144.125C42.076 144.258 42.1287 144.385 42.2224 144.479C42.3162 144.572 42.4434 144.625 42.576 144.625C42.7086 144.625 42.8358 144.572 42.9295 144.479C43.0233 144.385 43.076 144.258 43.076 144.125V137.462C43.033 136.856 42.076 136.856 42.076 137.462Z" fill="#161616"/>
<path d="M59.426 135.687V142.35C59.426 142.483 59.4787 142.61 59.5724 142.704C59.6662 142.797 59.7934 142.85 59.926 142.85C60.0586 142.85 60.1858 142.797 60.2795 142.704C60.3733 142.61 60.426 142.483 60.426 142.35V135.687C60.383 135.081 59.426 135.081 59.426 135.687Z" fill="#161616"/>
<path d="M70.675 133.308V144.125C70.675 144.258 70.7277 144.385 70.8214 144.479C70.9152 144.572 71.0424 144.625 71.175 144.625C71.3076 144.625 71.4348 144.572 71.5285 144.479C71.6223 144.385 71.675 144.258 71.675 144.125V133.308C71.632 132.702 70.675 132.702 70.675 133.308Z" fill="#161616"/>
<path d="M80.885 137.636V141.184C80.885 141.317 80.9377 141.444 81.0314 141.538C81.1252 141.631 81.2524 141.684 81.385 141.684C81.5176 141.684 81.6448 141.631 81.7385 141.538C81.8323 141.444 81.885 141.317 81.885 141.184V137.636C81.885 137.503 81.8323 137.376 81.7385 137.282C81.6448 137.189 81.5176 137.136 81.385 137.136C81.2524 137.136 81.1252 137.189 81.0314 137.282C80.9377 137.376 80.885 137.503 80.885 137.636Z" fill="#161616"/>
<path d="M16.246 148.451V157.061C16.246 157.194 16.2987 157.321 16.3924 157.415C16.4862 157.508 16.6134 157.561 16.746 157.561C16.8786 157.561 17.0058 157.508 17.0995 157.415C17.1933 157.321 17.246 157.194 17.246 157.061V148.451C17.246 148.318 17.1933 148.191 17.0995 148.097C17.0058 148.004 16.8786 147.951 16.746 147.951C16.6134 147.951 16.4862 148.004 16.3924 148.097C16.2987 148.191 16.246 148.318 16.246 148.451Z" fill="#161616"/>
<path d="M39.091 148.754V157.667C39.091 157.8 39.1437 157.927 39.2374 158.021C39.3312 158.114 39.4584 158.167 39.591 158.167C39.7236 158.167 39.8508 158.114 39.9445 158.021C40.0383 157.927 40.091 157.8 40.091 157.667V148.754C40.091 148.621 40.0383 148.494 39.9445 148.4C39.8508 148.307 39.7236 148.254 39.591 148.254C39.4584 148.254 39.3312 148.307 39.2374 148.4C39.1437 148.494 39.091 148.621 39.091 148.754Z" fill="#161616"/>
<path d="M29.615 149.489V155.417C29.615 155.55 29.6677 155.677 29.7614 155.771C29.8552 155.864 29.9824 155.917 30.115 155.917C30.2476 155.917 30.3748 155.864 30.4685 155.771C30.5623 155.677 30.615 155.55 30.615 155.417V149.489C30.615 149.356 30.5623 149.229 30.4685 149.135C30.3748 149.042 30.2476 148.989 30.115 148.989C29.9824 148.989 29.8552 149.042 29.7614 149.135C29.6677 149.229 29.615 149.356 29.615 149.489Z" fill="#161616"/>
<path d="M32.86 147.542V152.431C32.86 152.564 32.9127 152.691 33.0064 152.785C33.1002 152.878 33.2274 152.931 33.36 152.931C33.4926 152.931 33.6198 152.878 33.7135 152.785C33.8073 152.691 33.86 152.564 33.86 152.431V147.542C33.86 147.409 33.8073 147.282 33.7135 147.188C33.6198 147.095 33.4926 147.042 33.36 147.042C33.2274 147.042 33.1002 147.095 33.0064 147.188C32.9127 147.282 32.86 147.409 32.86 147.542Z" fill="#161616"/>
<path d="M64.315 147.716V156.759C64.315 156.892 64.3677 157.019 64.4614 157.113C64.5552 157.206 64.6824 157.259 64.815 157.259C64.9476 157.259 65.0748 157.206 65.1685 157.113C65.2623 157.019 65.315 156.892 65.315 156.759V147.716C65.315 147.583 65.2623 147.456 65.1685 147.362C65.0748 147.269 64.9476 147.216 64.815 147.216C64.6824 147.216 64.5552 147.269 64.4614 147.362C64.3677 147.456 64.315 147.583 64.315 147.716Z" fill="#161616"/>
<path d="M56.138 147.542V149.749C56.138 149.882 56.1907 150.009 56.2844 150.103C56.3782 150.196 56.5054 150.249 56.638 150.249C56.7706 150.249 56.8978 150.196 56.9915 150.103C57.0853 150.009 57.138 149.882 57.138 149.749V147.542C57.138 147.409 57.0853 147.282 56.9915 147.188C56.8978 147.095 56.7706 147.042 56.638 147.042C56.5054 147.042 56.3782 147.095 56.2844 147.188C56.1907 147.282 56.138 147.409 56.138 147.542Z" fill="#161616"/>
<path d="M83.698 144.904V153.514C83.698 153.647 83.7507 153.774 83.8444 153.868C83.9382 153.961 84.0654 154.014 84.198 154.014C84.3306 154.014 84.4578 153.961 84.5515 153.868C84.6453 153.774 84.698 153.647 84.698 153.514V144.904C84.698 144.771 84.6453 144.644 84.5515 144.55C84.4578 144.457 84.3306 144.404 84.198 144.404C84.0654 144.404 83.9382 144.457 83.8444 144.55C83.7507 144.644 83.698 144.771 83.698 144.904Z" fill="#161616"/>
<path d="M88.025 151.09V156.282C88.025 156.415 88.0777 156.542 88.1714 156.636C88.2652 156.729 88.3924 156.782 88.525 156.782C88.6576 156.782 88.7848 156.729 88.8785 156.636C88.9723 156.542 89.025 156.415 89.025 156.282V151.09C88.982 150.484 88.025 150.484 88.025 151.09Z" fill="#161616"/>
<path d="M72.449 147.542V155.114C72.449 155.247 72.5017 155.374 72.5954 155.468C72.6892 155.561 72.8164 155.614 72.949 155.614C73.0816 155.614 73.2088 155.561 73.3025 155.468C73.3963 155.374 73.449 155.247 73.449 155.114V147.542C73.449 147.409 73.3963 147.282 73.3025 147.188C73.2088 147.095 73.0816 147.042 72.949 147.042C72.8164 147.042 72.6892 147.095 72.5954 147.188C72.5017 147.282 72.449 147.409 72.449 147.542Z" fill="#161616"/>
<path d="M24.553 158.836V168.484C24.553 168.617 24.6057 168.744 24.6994 168.838C24.7932 168.931 24.9204 168.984 25.053 168.984C25.1856 168.984 25.3128 168.931 25.4065 168.838C25.5003 168.744 25.553 168.617 25.553 168.484V158.836C25.553 158.703 25.5003 158.576 25.4065 158.482C25.3128 158.389 25.1856 158.336 25.053 158.336C24.9204 158.336 24.7932 158.389 24.6994 158.482C24.6057 158.576 24.553 158.703 24.553 158.836Z" fill="#161616"/>
<path d="M32.081 170.214V160.566C32.081 160.433 32.0283 160.306 31.9345 160.212C31.8408 160.119 31.7136 160.066 31.581 160.066C31.4484 160.066 31.3212 160.119 31.2274 160.212C31.1337 160.306 31.081 160.433 31.081 160.566V170.214C31.081 170.347 31.1337 170.474 31.2274 170.568C31.3212 170.661 31.4484 170.714 31.581 170.714C31.7136 170.714 31.8408 170.661 31.9345 170.568C32.0283 170.474 32.081 170.347 32.081 170.214Z" fill="#161616"/>
<path d="M35.196 169.955V166.234C35.196 166.101 35.1433 165.974 35.0495 165.88C34.9558 165.787 34.8286 165.734 34.696 165.734C34.5634 165.734 34.4362 165.787 34.3424 165.88C34.2487 165.974 34.196 166.101 34.196 166.234V169.955C34.196 170.088 34.2487 170.215 34.3424 170.309C34.4362 170.402 34.5634 170.455 34.696 170.455C34.8286 170.455 34.9558 170.402 35.0495 170.309C35.1433 170.215 35.196 170.088 35.196 169.955Z" fill="#161616"/>
<path d="M42.076 158.099V168.181C42.076 168.314 42.1287 168.441 42.2224 168.535C42.3162 168.628 42.4434 168.681 42.576 168.681C42.7086 168.681 42.8358 168.628 42.9295 168.535C43.0233 168.441 43.076 168.314 43.076 168.181V158.099C43.076 157.966 43.0233 157.839 42.9295 157.745C42.8358 157.652 42.7086 157.599 42.576 157.599C42.4434 157.599 42.3162 157.652 42.2224 157.745C42.1287 157.839 42.076 157.966 42.076 158.099Z" fill="#161616"/>
<path d="M44.585 162.816V167.575C44.585 167.708 44.6377 167.835 44.7314 167.929C44.8252 168.022 44.9524 168.075 45.085 168.075C45.2176 168.075 45.3448 168.022 45.4385 167.929C45.5323 167.835 45.585 167.708 45.585 167.575V162.816C45.542 162.21 44.585 162.21 44.585 162.816Z" fill="#161616"/>
<path d="M47.999 161.042V166.234C47.999 166.367 48.0517 166.494 48.1454 166.588C48.2392 166.681 48.3664 166.734 48.499 166.734C48.6316 166.734 48.7588 166.681 48.8525 166.588C48.9463 166.494 48.999 166.367 48.999 166.234V161.042C48.956 160.436 47.999 160.436 47.999 161.042Z" fill="#161616"/>
<path d="M59.123 158.099V168.613C59.123 168.746 59.1757 168.873 59.2694 168.967C59.3632 169.06 59.4904 169.113 59.623 169.113C59.7556 169.113 59.8828 169.06 59.9765 168.967C60.0703 168.873 60.123 168.746 60.123 168.613V158.099C60.123 157.966 60.0703 157.839 59.9765 157.745C59.8828 157.652 59.7556 157.599 59.623 157.599C59.4904 157.599 59.3632 157.652 59.2694 157.745C59.1757 157.839 59.123 157.966 59.123 158.099Z" fill="#161616"/>
<path d="M70.372 161.951V167.751C70.372 167.884 70.4247 168.011 70.5184 168.105C70.6122 168.198 70.7394 168.251 70.872 168.251C71.0046 168.251 71.1318 168.198 71.2255 168.105C71.3193 168.011 71.372 167.884 71.372 167.751V161.951C71.372 161.818 71.3193 161.691 71.2255 161.597C71.1318 161.504 71.0046 161.451 70.872 161.451C70.7394 161.451 70.6122 161.504 70.5184 161.597C70.4247 161.691 70.372 161.818 70.372 161.951Z" fill="#161616"/>
<path d="M85.776 157.796V168.915C85.776 169.048 85.8287 169.175 85.9224 169.269C86.0162 169.362 86.1434 169.415 86.276 169.415C86.4086 169.415 86.5358 169.362 86.6295 169.269C86.7233 169.175 86.776 169.048 86.776 168.915V157.796C86.776 157.663 86.7233 157.536 86.6295 157.442C86.5358 157.349 86.4086 157.296 86.276 157.296C86.1434 157.296 86.0162 157.349 85.9224 157.442C85.8287 157.536 85.776 157.663 85.776 157.796Z" fill="#161616"/>
<path d="M90.532 163.249V168.571C90.532 168.704 90.5847 168.831 90.6784 168.925C90.7722 169.018 90.8994 169.071 91.032 169.071C91.1646 169.071 91.2918 169.018 91.3855 168.925C91.4793 168.831 91.532 168.704 91.532 168.571V163.249C91.532 163.116 91.4793 162.989 91.3855 162.895C91.2918 162.802 91.1646 162.749 91.032 162.749C90.8994 162.749 90.7722 162.802 90.6784 162.895C90.5847 162.989 90.532 163.116 90.532 163.249Z" fill="#161616"/>
<path d="M98.712 158.36V166.667C98.712 166.8 98.7647 166.927 98.8584 167.021C98.9522 167.114 99.0794 167.167 99.212 167.167C99.3446 167.167 99.4718 167.114 99.5656 167.021C99.6593 166.927 99.712 166.8 99.712 166.667V158.36C99.669 157.754 98.712 157.754 98.712 158.36Z" fill="#161616"/>
<path d="M36.668 183.151V173.503C36.668 173.37 36.6153 173.243 36.5215 173.149C36.4278 173.056 36.3006 173.003 36.168 173.003C36.0354 173.003 35.9082 173.056 35.8144 173.149C35.7207 173.243 35.668 173.37 35.668 173.503V183.151C35.668 183.284 35.7207 183.411 35.8144 183.505C35.9082 183.598 36.0354 183.651 36.168 183.651C36.3006 183.651 36.4278 183.598 36.5215 183.505C36.6153 183.411 36.668 183.284 36.668 183.151Z" fill="#161616"/>
<path d="M40.215 182.978V178.089C40.215 177.956 40.1623 177.829 40.0685 177.735C39.9748 177.642 39.8476 177.589 39.715 177.589C39.5824 177.589 39.4552 177.642 39.3614 177.735C39.2677 177.829 39.215 177.956 39.215 178.089V182.978C39.215 183.111 39.2677 183.238 39.3614 183.332C39.4552 183.425 39.5824 183.478 39.715 183.478C39.8476 183.478 39.9748 183.425 40.0685 183.332C40.1623 183.238 40.215 183.111 40.215 182.978Z" fill="#161616"/>
<path d="M50.21 171.729V182.848C50.21 182.981 50.2627 183.108 50.3564 183.202C50.4502 183.295 50.5774 183.348 50.71 183.348C50.8426 183.348 50.9698 183.295 51.0635 183.202C51.1573 183.108 51.21 182.981 51.21 182.848V171.729C51.21 171.596 51.1573 171.469 51.0635 171.375C50.9698 171.282 50.8426 171.229 50.71 171.229C50.5774 171.229 50.4502 171.282 50.3564 171.375C50.2627 171.469 50.21 171.596 50.21 171.729Z" fill="#161616"/>
<path d="M59.123 173.503V180.339C59.123 180.472 59.1757 180.599 59.2694 180.693C59.3632 180.786 59.4904 180.839 59.623 180.839C59.7556 180.839 59.8828 180.786 59.9765 180.693C60.0703 180.599 60.123 180.472 60.123 180.339V173.503C60.123 173.37 60.0703 173.243 59.9765 173.149C59.8828 173.056 59.7556 173.003 59.623 173.003C59.4904 173.003 59.3632 173.056 59.2694 173.149C59.1757 173.243 59.123 173.37 59.123 173.503Z" fill="#161616"/>
<path d="M56.008 174.844V177.526C56.008 177.659 56.0607 177.786 56.1544 177.88C56.2482 177.973 56.3754 178.026 56.508 178.026C56.6406 178.026 56.7678 177.973 56.8615 177.88C56.9553 177.786 57.008 177.659 57.008 177.526V174.844C57.008 174.711 56.9553 174.584 56.8615 174.49C56.7678 174.397 56.6406 174.344 56.508 174.344C56.3754 174.344 56.2482 174.397 56.1544 174.49C56.0607 174.584 56.008 174.711 56.008 174.844Z" fill="#161616"/>
<path d="M75.261 170.69V182.242C75.261 182.375 75.3137 182.502 75.4074 182.596C75.5012 182.689 75.6284 182.742 75.761 182.742C75.8936 182.742 76.0208 182.689 76.1145 182.596C76.2083 182.502 76.261 182.375 76.261 182.242V170.69C76.261 170.557 76.2083 170.43 76.1145 170.336C76.0208 170.243 75.8936 170.19 75.761 170.19C75.6284 170.19 75.5012 170.243 75.4074 170.336C75.3137 170.43 75.261 170.557 75.261 170.69Z" fill="#161616"/>
<path d="M78.981 175.709V180.901C78.981 181.034 79.0337 181.161 79.1274 181.255C79.2212 181.348 79.3484 181.401 79.481 181.401C79.6136 181.401 79.7408 181.348 79.8345 181.255C79.9283 181.161 79.981 181.034 79.981 180.901V175.709C79.938 175.103 78.981 175.103 78.981 175.709Z" fill="#161616"/>
<path d="M88.458 171.254V182.071C88.458 182.204 88.5107 182.331 88.6044 182.425C88.6982 182.518 88.8254 182.571 88.958 182.571C89.0906 182.571 89.2178 182.518 89.3115 182.425C89.4053 182.331 89.458 182.204 89.458 182.071V171.254C89.458 171.121 89.4053 170.994 89.3115 170.9C89.2178 170.807 89.0906 170.754 88.958 170.754C88.8254 170.754 88.6982 170.807 88.6044 170.9C88.5107 170.994 88.458 171.121 88.458 171.254Z" fill="#161616"/>
<path d="M105.678 172.164V181.51C105.678 181.643 105.731 181.77 105.824 181.864C105.918 181.957 106.045 182.01 106.178 182.01C106.311 182.01 106.438 181.957 106.532 181.864C106.625 181.77 106.678 181.643 106.678 181.51V172.164C106.635 171.558 105.678 171.558 105.678 172.164Z" fill="#161616"/>
<path d="M108.317 176.185V180.642C108.317 180.775 108.37 180.902 108.463 180.996C108.557 181.089 108.684 181.142 108.817 181.142C108.95 181.142 109.077 181.089 109.171 180.996C109.264 180.902 109.317 180.775 109.317 180.642V176.185C109.317 176.052 109.264 175.925 109.171 175.831C109.077 175.738 108.95 175.685 108.817 175.685C108.684 175.685 108.557 175.738 108.463 175.831C108.37 175.925 108.317 176.052 108.317 176.185Z" fill="#161616"/>
<path d="M97.242 143.432V136.509C97.242 136.376 97.1893 136.249 97.0955 136.155C97.0018 136.062 96.8746 136.009 96.742 136.009C96.6094 136.009 96.4822 136.062 96.3884 136.155C96.2947 136.249 96.242 136.376 96.242 136.509V143.432C96.285 144.038 97.242 144.081 97.242 143.432Z" fill="#161616"/>
<path d="M103.212 133.701V143.001C103.212 143.134 103.265 143.261 103.358 143.355C103.452 143.448 103.579 143.501 103.712 143.501C103.845 143.501 103.972 143.448 104.066 143.355C104.159 143.261 104.212 143.134 104.212 143.001V133.701C104.169 133.095 103.212 133.052 103.212 133.701Z" fill="#161616"/>
<path d="M107.711 115.179C108.864 115.854 109.802 116.842 110.415 118.03C111.028 119.217 111.29 120.554 111.172 121.885C111.129 122.491 112.081 122.491 112.172 121.885C112.302 120.385 112 118.88 111.303 117.546C110.605 116.212 109.541 115.106 108.235 114.357C108.181 114.323 108.121 114.3 108.058 114.289C107.995 114.278 107.931 114.28 107.868 114.294C107.806 114.308 107.747 114.334 107.695 114.371C107.643 114.408 107.599 114.455 107.564 114.509C107.53 114.562 107.507 114.623 107.496 114.686C107.486 114.748 107.487 114.813 107.501 114.875C107.515 114.937 107.542 114.996 107.578 115.048C107.615 115.101 107.662 115.145 107.716 115.179H107.711Z" fill="#161616"/>
<path d="M8.62998 147.326C8.05599 148.248 7.70268 149.289 7.59756 150.37C7.49244 151.451 7.63838 152.541 8.024 153.556C8.24 154.118 9.19199 153.902 8.97599 153.296C8.6305 152.403 8.49754 151.441 8.58761 150.487C8.67769 149.534 8.98832 148.614 9.49499 147.801C9.55243 147.687 9.56335 147.555 9.52546 147.433C9.48757 147.311 9.40382 147.208 9.29182 147.146C9.17981 147.085 9.04828 147.069 8.92486 147.102C8.80144 147.135 8.69573 147.215 8.62998 147.325V147.326Z" fill="#161616"/>
<path d="M3.74198 142.438C1.25783 145.536 -0.0456181 149.415 0.0639752 153.384C0.0639752 153.517 0.116661 153.644 0.210429 153.738C0.304197 153.831 0.431367 153.884 0.563975 153.884C0.696583 153.884 0.823768 153.831 0.917537 153.738C1.0113 153.644 1.06398 153.517 1.06398 153.384C0.960106 149.656 2.16995 146.01 4.48197 143.084C4.82797 142.651 4.13598 141.959 3.74598 142.435L3.74198 142.438Z" fill="#161616"/>
<path d="M107.278 156.244C108.129 156.681 108.842 157.344 109.338 158.161C109.834 158.978 110.095 159.917 110.09 160.873C110.09 161.006 110.143 161.133 110.236 161.227C110.33 161.32 110.457 161.373 110.59 161.373C110.723 161.373 110.85 161.32 110.944 161.227C111.037 161.133 111.09 161.006 111.09 160.873C111.097 159.75 110.794 158.646 110.214 157.684C109.634 156.722 108.799 155.939 107.802 155.421C107.24 155.121 106.72 155.94 107.283 156.243L107.278 156.244Z" fill="#161616"/>
<path opacity="0.15" d="M62.411 118.64C67.4864 117.89 72.6666 118.865 77.122 121.409C78.6094 122.297 79.9763 123.372 81.189 124.609C81.059 126.599 80.889 128.589 80.756 130.58C74.396 130.84 68.079 131.099 61.719 131.316C62.584 131.359 69.507 131.749 73.271 137.373C74.5322 139.281 75.2638 141.49 75.391 143.773C74.9789 146.723 73.8004 149.512 71.973 151.864C69.8336 154.561 66.9429 156.563 63.666 157.618C64.885 158.259 65.9642 159.136 66.8407 160.198C67.7171 161.26 68.3733 162.487 68.771 163.805C69.2429 165.548 69.2429 167.384 68.771 169.127C64.571 173.67 60.374 178.227 56.18 182.799L113.98 183.448C115.254 182.777 116.294 181.737 116.965 180.463C117.591 179.168 117.841 177.724 117.689 176.294C117.536 174.864 116.985 173.505 116.1 172.372C113.071 168.521 106.192 169.863 105.413 170.036C106.507 169.221 107.388 168.155 107.983 166.927C108.578 165.7 108.869 164.347 108.831 162.984C108.631 160.919 107.639 159.011 106.062 157.662C102.99 157.446 99.962 157.229 96.889 157.013C97.6821 156.162 98.2821 155.149 98.648 154.045C99.0139 152.94 99.137 151.77 99.009 150.613C98.8074 149.244 98.2496 147.952 97.3916 146.866C96.5336 145.78 95.4054 144.939 94.12 144.426C98.23 144.383 101.778 144.296 104.59 144.21C112.767 143.994 114.628 143.864 116.099 142.31C118.089 140.147 118.738 135.95 116.748 133.354C115.877 132.286 114.674 131.539 113.33 131.234C110.13 131.104 106.93 130.934 103.725 130.801C104.549 130.829 105.371 130.695 106.143 130.405C106.915 130.116 107.622 129.677 108.225 129.114C108.821 128.417 109.264 127.602 109.525 126.723C109.786 125.843 109.859 124.919 109.739 124.009C109.658 122.004 108.824 120.104 107.403 118.687C105.283 116.827 102.557 117.346 97.581 117.605C93.687 117.821 89.75 117.432 85.856 117.605C77.727 117.948 69.507 118.337 62.411 118.64Z" fill="#3D3D3D"/>
<path d="M4 30.491C3.184 35.519 5.41799 40.245 8.38299 44.156C11.391 48.109 15.473 51.332 20.501 52.063C21.317 52.192 21.661 50.946 20.845 50.817C16.505 50.217 12.896 47.637 10.145 44.328C7.094 40.628 4.42999 35.82 5.24499 30.878C5.37399 30.019 4.12799 29.678 3.99899 30.491H4Z" fill="#161616"/>
<path d="M5.11699 30.491C6.35623 29.5447 7.79739 28.8975 9.32799 28.6C10.144 28.428 9.80099 27.182 8.98399 27.354C7.24666 27.7078 5.61435 28.4576 4.21399 29.545C3.56899 30.104 4.47198 31.006 5.11398 30.49L5.11699 30.491Z" fill="#161616"/>
<path d="M9.542 28.686C13.366 29.717 16.842 34.186 19.042 37.28C21.3024 40.4971 23.0424 44.0499 24.198 47.808C24.456 48.581 25.698 48.281 25.444 47.464C24.1371 43.151 22.0714 39.1057 19.344 35.518C17.024 32.467 13.715 28.471 9.891 27.44C9.72577 27.3944 9.54918 27.4163 9.40009 27.5009C9.251 27.5854 9.14161 27.7258 9.096 27.891C9.05038 28.0562 9.07226 28.2328 9.15683 28.3819C9.24141 28.531 9.38176 28.6404 9.54699 28.686H9.542Z" fill="#161616"/>
<path d="M20.758 52.148C22.4085 51.3258 23.8591 50.1523 25.008 48.71C25.524 48.065 24.621 47.163 24.108 47.81C23.0487 49.1672 21.6977 50.2687 20.155 51.033C19.339 51.42 20.026 52.494 20.755 52.15L20.758 52.148Z" fill="#161616"/>
<path d="M7.136 28.773C7.007 33.715 9.757 38.656 12.679 42.48C15.429 46.089 19.296 48.84 24.023 48.754C24.1895 48.7474 24.3471 48.6767 24.4626 48.5565C24.5781 48.4364 24.6426 48.2762 24.6426 48.1095C24.6426 47.9428 24.5781 47.7826 24.4626 47.6625C24.3471 47.5423 24.1895 47.4716 24.023 47.465C19.253 47.551 15.558 44.457 12.98 40.719C10.617 37.238 8.339 33.113 8.425 28.773C8.41844 28.6065 8.34767 28.4489 8.22752 28.3334C8.10737 28.2179 7.94717 28.1534 7.7805 28.1534C7.61383 28.1534 7.45362 28.2179 7.33348 28.3334C7.21333 28.4489 7.14256 28.6065 7.136 28.773Z" fill="#161616"/>
<path d="M5.761 36.378C6.40326 35.6133 7.19208 34.985 8.08099 34.53C8.81199 34.186 8.167 33.069 7.436 33.413C6.4364 33.885 5.55543 34.5753 4.858 35.433C4.342 36.078 5.24499 37.023 5.75799 36.378H5.761Z" fill="#161616"/>
<path d="M5.07499 33.456C5.85535 32.8581 6.74603 32.4201 7.69599 32.167C7.86122 32.1214 8.00156 32.012 8.08614 31.8629C8.17072 31.7138 8.19261 31.5372 8.14699 31.372C8.10138 31.2068 7.99199 31.0664 7.8429 30.9818C7.69381 30.8973 7.51723 30.8754 7.352 30.921C6.30513 31.2259 5.31725 31.7053 4.43 32.339C3.785 32.812 4.38699 33.929 5.07499 33.456Z" fill="#161616"/>
<path d="M9.62899 44.327C10.529 43.597 11.477 42.866 12.379 42.136C13.024 41.62 12.121 40.718 11.479 41.236C10.579 41.966 9.63098 42.697 8.72898 43.427C8.04198 43.943 8.98699 44.845 9.62899 44.327Z" fill="#161616"/>
<path d="M12.208 47.163L14.399 45.487C14.4736 45.4424 14.5386 45.3835 14.5902 45.3136C14.6418 45.2437 14.679 45.1643 14.6997 45.0799C14.7203 44.9955 14.724 44.9078 14.7105 44.822C14.697 44.7361 14.6666 44.6538 14.621 44.5799C14.5755 44.5059 14.5157 44.4417 14.4451 44.391C14.3745 44.3403 14.2946 44.3042 14.2099 44.2847C14.1252 44.2651 14.0375 44.2626 13.9519 44.2773C13.8662 44.2919 13.7843 44.3234 13.711 44.37L11.52 46.046C11.4454 46.0906 11.3804 46.1495 11.3288 46.2194C11.2772 46.2893 11.24 46.3688 11.2193 46.4532C11.1986 46.5376 11.195 46.6252 11.2085 46.711C11.2219 46.7969 11.2524 46.8792 11.2979 46.9532C11.3435 47.0271 11.4033 47.0913 11.4739 47.142C11.5445 47.1927 11.6244 47.2288 11.7091 47.2484C11.7938 47.2679 11.8815 47.2704 11.9671 47.2557C12.0527 47.2411 12.1346 47.2096 12.208 47.163Z" fill="#161616"/>
<path d="M16.761 50.386C17.491 49.656 18.261 48.968 18.995 48.238C19.595 47.679 18.695 46.738 18.095 47.338C17.364 48.068 16.595 48.756 15.861 49.487C15.261 50.046 16.161 50.987 16.761 50.387V50.386Z" fill="#161616"/>
<path d="M9.75799 31.436C10.574 32.166 11.348 32.936 12.164 33.67C12.1142 33.4151 12.0854 33.1566 12.078 32.897C11.219 34.272 10.746 36.034 11.906 37.409C12.3242 37.912 12.8993 38.26 13.539 38.397C13.8249 38.4185 14.1121 38.4185 14.398 38.397C14.613 38.354 14.785 38.268 14.998 38.225C17.361 37.838 17.791 38.741 16.244 40.889C15.471 41.189 15.814 42.436 16.588 42.135C16.9896 42.021 17.3611 41.8198 17.676 41.5458C17.9909 41.2717 18.2415 40.9315 18.4098 40.5494C18.5781 40.1674 18.66 39.7529 18.6496 39.3355C18.6393 38.9182 18.537 38.5083 18.35 38.135C18.1228 37.7461 17.8049 37.4179 17.4233 37.1785C17.0418 36.939 16.608 36.7955 16.159 36.76C15.8584 36.753 15.5576 36.7674 15.259 36.803C14.228 37.362 13.325 36.932 12.552 35.603C12.577 34.9029 12.8172 34.2276 13.24 33.669C13.3009 33.5454 13.3252 33.4069 13.31 33.2699C13.2947 33.133 13.2406 33.0032 13.154 32.896C12.338 32.166 11.564 31.396 10.748 30.662C10.06 29.974 9.15799 30.877 9.75999 31.435L9.75799 31.436Z" fill="#161616"/>
<path d="M17.278 41.791C18.009 42.65 18.696 43.467 19.426 44.326C19.942 44.971 20.887 44.026 20.326 43.426C19.596 42.567 18.908 41.75 18.177 40.891C17.661 40.246 16.759 41.191 17.277 41.791H17.278Z" fill="#161616"/>
<path d="M45.982 21.767C42.201 18.802 39.882 10.38 43.06 6.384C46.798 1.784 54.232 -0.19 58.4 4.708C61.881 8.79 62.1 15.193 59.474 19.791C58.8026 21.0906 57.7756 22.1726 56.5126 22.9105C55.2496 23.6485 53.8028 24.0122 52.341 23.959C50.9609 23.9908 49.5895 23.7318 48.3162 23.1987C47.0428 22.6656 45.8959 21.8705 44.95 20.865C44.391 20.265 43.489 21.165 44.05 21.765C47.187 25.117 52.816 26.365 56.984 24.214C61.324 21.937 62.957 15.749 62.441 11.237C61.925 6.682 59.132 1.784 54.406 0.580002C49.851 -0.579998 43.106 2.686 41.085 6.94C39.839 9.561 40.312 12.698 40.956 15.448C41.4314 18.2232 42.8598 20.7457 44.995 22.581C45.682 23.181 46.628 22.281 45.983 21.765L45.982 21.767Z" fill="#161616"/>
<path d="M49.591 5.613C49.591 5.57 49.548 5.48401 49.548 5.44101C49.462 5.69901 49.333 5.91401 49.248 6.17101C48.861 6.04201 48.818 6.085 49.076 6.429C49.3192 6.85223 49.5202 7.29839 49.676 7.76101C49.805 7.50301 49.976 7.245 50.106 6.988C48.43 7.504 46.325 8.664 46.926 10.769C46.9992 11.0904 47.1516 11.3884 47.3691 11.636C47.5867 11.8837 47.8627 12.073 48.172 12.187C48.688 12.402 48.988 12.187 49.504 12.144C49.8918 11.9523 50.331 11.8905 50.7567 11.968C51.1823 12.0454 51.5716 12.2579 51.867 12.574C52.512 14.465 51.996 15.41 50.277 15.539C50.1632 15.5431 50.0524 15.5762 49.955 15.6353C49.8577 15.6944 49.7772 15.7775 49.7211 15.8766C49.665 15.9757 49.6353 16.0875 49.6348 16.2014C49.6342 16.3153 49.6629 16.4274 49.718 16.527C50.0948 17.244 50.4109 17.9913 50.663 18.761C50.921 19.534 52.163 19.234 51.909 18.417C51.6589 17.5302 51.2981 16.6785 50.835 15.882C50.663 16.226 50.448 16.527 50.276 16.87C52.339 16.827 54.315 14.893 53.456 12.745C53.2593 12.2516 52.9451 11.8137 52.5409 11.4692C52.1366 11.1246 51.6544 10.884 51.136 10.768C50.5742 10.7451 50.0117 10.7884 49.46 10.897C48.386 10.897 48.085 10.682 48.644 9.651C48.7999 9.28598 49.0476 8.96751 49.363 8.72656C49.6784 8.48562 50.0508 8.3304 50.444 8.276C50.6023 8.22859 50.7358 8.12126 50.8161 7.97688C50.8964 7.8325 50.9172 7.66248 50.874 7.50301C50.574 6.64401 50.274 5.44001 49.413 5.01101C49.3138 4.95787 49.203 4.93007 49.0905 4.93007C48.978 4.93007 48.8672 4.95787 48.768 5.01101C48.725 5.05401 48.639 5.097 48.596 5.14C48.4784 5.2174 48.3868 5.32846 48.3333 5.45869C48.2798 5.58893 48.2668 5.73227 48.296 5.87C48.296 5.913 48.339 5.999 48.339 6.042C48.511 6.73 49.757 6.386 49.585 5.612L49.591 5.613Z" fill="#161616"/>
<path d="M53.63 1.958C60.161 0.282003 63.556 7.329 63.685 12.701C63.728 15.15 63.513 17.901 62.052 19.963C60.462 22.197 57.626 22.885 55.263 23.916C54.49 24.26 55.177 25.377 55.908 25.033C58.744 23.787 61.838 22.97 63.514 20.091C65.104 17.341 65.233 13.691 64.846 10.591C64.159 4.919 59.646 -0.924997 53.33 0.708003C53.1684 0.751169 53.0301 0.855783 52.9446 0.999519C52.859 1.14325 52.8331 1.31472 52.8722 1.47733C52.9114 1.63994 53.0125 1.78081 53.1541 1.86986C53.2957 1.95892 53.4665 1.98911 53.63 1.954V1.958Z" fill="#161616"/>
<path d="M60.807 19.361L62.607 18.974C63.423 18.802 63.08 17.556 62.263 17.728L60.463 18.115C59.647 18.287 59.99 19.533 60.807 19.361Z" fill="#161616"/>
<path d="M62.353 14.42C63.041 14.205 63.728 13.99 64.373 13.732C65.146 13.474 64.803 12.232 64.029 12.486C63.342 12.701 62.654 12.916 62.009 13.174C61.236 13.432 61.579 14.674 62.353 14.42Z" fill="#161616"/>
<path d="M61.924 10.596C62.354 10.51 62.824 10.424 63.256 10.338C63.3405 10.3206 63.4204 10.286 63.4909 10.2363C63.5614 10.1866 63.6208 10.1228 63.6655 10.0491C63.7102 9.9753 63.7391 9.89309 63.7505 9.80761C63.7619 9.72212 63.7555 9.63521 63.7318 9.5523C63.708 9.4694 63.6674 9.3923 63.6124 9.32584C63.5574 9.25939 63.4893 9.205 63.4124 9.1661C63.3354 9.1272 63.2512 9.10463 63.1651 9.09979C63.079 9.09496 62.9928 9.10797 62.912 9.138C62.482 9.224 62.012 9.31 61.58 9.396C61.5002 9.41727 61.4256 9.45437 61.3605 9.5051C61.2953 9.55583 61.2411 9.61914 61.201 9.69127C61.1609 9.76341 61.1357 9.84288 61.1269 9.92495C61.1181 10.007 61.126 10.09 61.15 10.169C61.2008 10.325 61.3087 10.456 61.4521 10.5358C61.5954 10.6155 61.7637 10.6381 61.923 10.599L61.924 10.596Z" fill="#161616"/>
<path d="M59.347 5.181C60.1368 5.3184 60.9484 5.25933 61.71 5.009C62.483 4.751 62.14 3.509 61.366 3.763C60.8277 3.9472 60.2545 4.00603 59.69 3.935C59.5307 3.89589 59.3624 3.91848 59.2191 3.99824C59.0757 4.07799 58.9678 4.209 58.917 4.365C58.8881 4.44668 58.8765 4.53344 58.8828 4.61985C58.889 4.70625 58.9131 4.79041 58.9535 4.86705C58.9939 4.94369 59.0497 5.01115 59.1174 5.06518C59.1851 5.11921 59.2633 5.15864 59.347 5.181Z" fill="#161616"/>
<path d="M52.213 86.48C46.584 84.847 42.931 79.347 42.846 73.589C42.717 67.015 48.432 61.389 54.964 64.307C60.464 66.756 62.57 73.202 62.742 78.831C62.828 81.538 62.355 84.804 59.906 86.394C57.371 88.07 54.062 87.425 51.355 86.566C50.582 86.308 50.238 87.554 51.011 87.812C55.394 89.23 60.937 89.312 63.129 84.417C65.235 79.733 63.902 73.03 61.496 68.733C59.09 64.393 53.933 61.041 48.82 62.545C43.492 64.135 41.085 69.936 41.687 75.092C41.9604 77.975 43.0757 80.714 44.8939 82.9681C46.7121 85.2221 49.1531 86.8917 51.913 87.769C52.686 87.984 53.03 86.738 52.213 86.48Z" fill="#161616"/>
<path d="M49.381 67.445C50.4253 68.5486 51.241 69.8479 51.781 71.268L52.554 70.495C50.491 70.065 49.417 71.827 49.546 73.718C49.5212 74.0568 49.583 74.3964 49.7258 74.7047C49.8686 75.013 50.0875 75.2798 50.362 75.48C50.892 75.6368 51.4515 75.6663 51.995 75.566C52.4928 75.509 52.9947 75.4946 53.495 75.523C55.772 75.695 56.073 76.683 54.44 78.488C54.3262 78.4921 54.2153 78.5252 54.118 78.5843C54.0207 78.6434 53.9402 78.7265 53.8841 78.8256C53.828 78.9247 53.7983 79.0365 53.7977 79.1504C53.7972 79.2643 53.8259 79.3764 53.881 79.476C54.6658 80.6735 55.3694 81.9223 55.987 83.214C56.331 83.944 57.448 83.3 57.104 82.569C56.4698 81.286 55.7668 80.0382 54.998 78.831C54.826 79.175 54.611 79.476 54.439 79.819C56.239 79.604 57.748 77.928 56.802 76.081C56.3478 75.3025 55.6076 74.732 54.739 74.491C54.1105 74.3137 53.4571 74.241 52.805 74.276C52.289 74.319 51.817 74.362 51.305 74.405C50.489 73.417 50.789 72.557 52.25 71.827C52.68 71.913 53.238 71.527 53.023 71.054C52.4218 69.4183 51.4882 67.9249 50.281 66.668C49.722 65.938 48.82 66.84 49.381 67.441V67.445Z" fill="#161616"/>
<path d="M44.91 64.566C39.367 69.336 37.648 77.543 41.816 83.774C43.747 86.6944 46.75 88.7374 50.1755 89.4611C53.6011 90.1847 57.1738 89.5309 60.121 87.641C60.809 87.211 60.164 86.094 59.476 86.524C58.1167 87.4042 56.5938 88.001 54.9985 88.2787C53.4032 88.5564 51.7682 88.5093 50.1915 88.1402C48.6148 87.7711 47.1288 87.0876 45.8224 86.1307C44.5161 85.1737 43.4164 83.963 42.589 82.571C39.151 76.813 40.913 69.723 45.855 65.471C46.455 64.955 45.555 64.053 44.91 64.571V64.566Z" fill="#161616"/>
<path opacity="0.14" d="M48.345 64.007C47.1716 66.6246 46.613 69.4761 46.712 72.343C46.755 73.46 47.056 79.691 51.568 83.902C54.662 86.781 57.928 86.953 57.799 87.941C57.627 89.015 53.588 89.875 49.935 88.972C47.8613 88.4108 45.9521 87.3612 44.3672 85.9109C42.7822 84.4606 41.5676 82.6519 40.825 80.636C39.57 77.3868 39.6473 73.7736 41.04 70.581C42.5087 67.5091 45.1358 65.1449 48.345 64.007Z" fill="#2F80ED" fill-opacity="0.59"/>
<path opacity="0.15" d="M7.82398 28.643C8.08503 31.0573 8.66301 33.4267 9.54299 35.69C10.66 38.44 12.594 43.382 17.621 46.218C19.7851 47.414 22.1976 48.0908 24.668 48.195C24.1091 49.2756 23.2803 50.1933 22.262 50.859C21.549 51.3056 20.7641 51.6254 19.942 51.804C17.3618 51.0387 14.9338 49.8319 12.766 48.237C9.20018 45.7499 6.53257 42.1781 5.15999 38.053C4.34116 35.3532 4.14995 32.502 4.60099 29.717C5.63399 29.33 6.70698 28.986 7.82398 28.643Z" fill="#2F80ED" fill-opacity="0.59"/>
<path opacity="0.14" d="M54.361 1.01401C56.4731 2.12498 58.23 3.80775 59.431 5.87C60.9698 8.68856 61.4991 11.9484 60.931 15.109C60.7744 17.4057 59.9699 19.6109 58.611 21.469C57.8441 22.4789 56.8972 23.3383 55.818 24.004C57.7943 23.9135 59.6777 23.139 61.146 21.813C62.4608 20.4353 63.3422 18.702 63.681 16.828C64.2321 14.8445 64.3927 12.7728 64.154 10.728C63.9344 9.0767 63.4267 7.47676 62.654 6.00101C61.8447 4.04965 60.3672 2.45015 58.486 1.489C57.1831 0.945617 55.7533 0.780975 54.361 1.01401Z" fill="#2F80ED" fill-opacity="0.59"/>
</svg>
